<?xml version="1.0" encoding="utf-8"?>
<!-- Generator: Adobe Illustrator 21.0.0, SVG Export Plug-In . SVG Version: 6.00 Build 0)  -->
<svg version="1.1" id="Layer_1" xmlns="http://www.w3.org/2000/svg" xmlns:xlink="http://www.w3.org/1999/xlink" x="0px" y="0px"
	 viewBox="0 0 1028 1028" style="enable-background:new 0 0 1028 1028;" xml:space="preserve">
<style type="text/css">
	.st0{fill:#9F30AD;}
	.st1{fill:#C13AD8;}
	.st2{fill:url(#SVGID_1_);}
	.st3{fill:#B138C6;}
	.st4{fill:#9733AF;}
	.st5{fill:#862F9B;}
	.st6{fill:#CA44EA;}
	.st7{fill:#FDB4FF;}
	.st8{fill:#441F00;}
	.st9{fill:url(#SVGID_2_);}
	.st10{opacity:0.6;fill:#282828;}
</style>
<g>
	<g id="purple_x5F_gem_x5F_lv3">
		<polygon class="st0" points="734.2,544.9 734.2,290.6 514,163.4 293.8,290.6 293.8,544.9 514,672 		"/>
		<polygon class="st1" points="642.6,492 642.6,343.5 514,269.2 385.4,343.5 385.4,492 514,566.3 		"/>
		<linearGradient id="SVGID_1_" gradientUnits="userSpaceOnUse" x1="514.0008" y1="473.6273" x2="514.0008" y2="361.8345">
			<stop  offset="0" style="stop-color:#9C3600"/>
			<stop  offset="4.062283e-02" style="stop-color:#A44401"/>
			<stop  offset="0.2519" style="stop-color:#CD8909"/>
			<stop  offset="0.4045" style="stop-color:#E7B40D"/>
			<stop  offset="0.4821" style="stop-color:#F1C40F"/>
			<stop  offset="0.5326" style="stop-color:#F2C615"/>
			<stop  offset="0.5972" style="stop-color:#F3CC25"/>
			<stop  offset="0.6695" style="stop-color:#F7D53F"/>
			<stop  offset="0.7468" style="stop-color:#FBE363"/>
			<stop  offset="0.8125" style="stop-color:#FFF088"/>
			<stop  offset="1" style="stop-color:#FFF8D6"/>
		</linearGradient>
		<polygon class="st2" points="562.4,445.7 562.4,389.8 514,361.8 465.6,389.8 465.6,445.7 514,473.6 		"/>
		<polygon class="st3" points="514,269.2 514,163.4 734.2,290.6 642.6,343.5 		"/>
		<polygon class="st4" points="642.6,492 642.6,343.5 734.2,290.6 734.2,544.9 		"/>
		<polygon class="st5" points="514,566.3 514,672 734.2,544.9 642.6,492 		"/>
		<polygon class="st4" points="385.4,492 293.8,544.9 514,672 514,566.3 		"/>
		<polygon class="st3" points="293.8,290.6 385.4,343.5 385.4,492 293.8,544.9 		"/>
		<polygon class="st6" points="514,269.2 385.4,343.5 293.8,290.6 514,163.4 		"/>
		<path class="st7" d="M734.2,290.6c-32.4,16.6-64.8,33.1-97.2,49.7l0,0l-118.7-68.6L514,163.4l-4.3,108.3h0l-118.7,68.6
			c-32.4-16.6-64.8-33.1-97.2-49.7l91.6,52.9c0,17.6,0,35.2,0,52.8c1.7-16.5,3.4-33,5.2-49.5c41.2-22.4,82.3-44.8,123.5-67.1
			c41.2,22.4,82.3,44.8,123.5,67.1c1.7,16.5,3.4,33,5.2,49.5c0-17.6,0-35.2,0-52.8l1.2-0.7l0,0L734.2,290.6z"/>
		<path class="st8" d="M514,135.2l12.2,7.1l220.2,127.2l12.2,7.1v14.1v254.3V559l-12.2,7.1L526.2,693.2l-12.2,7.1l-12.2-7.1
			L281.5,566l-12.2-7.1v-14.1V290.6v-14.1l12.2-7.1l220.2-127.2L514,135.2 M514,120.6c-2.5,0-5.1,0.7-7.3,2l-12.2,7.1L274.2,256.7
			l-12.2,7.1c-4.5,2.6-7.3,7.5-7.3,12.7v14.1v254.3V559c0,5.2,2.8,10.1,7.3,12.7l12.2,7.1l220.2,127.2l12.2,7.1c2.3,1.3,4.8,2,7.3,2
			s5.1-0.7,7.3-2l12.2-7.1l220.2-127.2l12.2-7.1c4.5-2.6,7.3-7.5,7.3-12.7v-14.1V290.6v-14.1c0-5.2-2.8-10.1-7.3-12.7l-12.2-7.1
			L533.5,129.6l-12.2-7.1C519.1,121.2,516.5,120.6,514,120.6L514,120.6z"/>
		<linearGradient id="SVGID_2_" gradientUnits="userSpaceOnUse" x1="514.0003" y1="700.248" x2="514.0003" y2="135.2134">
			<stop  offset="0" style="stop-color:#9C3600"/>
			<stop  offset="4.062283e-02" style="stop-color:#A44401"/>
			<stop  offset="0.2519" style="stop-color:#CD8909"/>
			<stop  offset="0.4045" style="stop-color:#E7B40D"/>
			<stop  offset="0.4821" style="stop-color:#F1C40F"/>
			<stop  offset="0.5326" style="stop-color:#F2C615"/>
			<stop  offset="0.5972" style="stop-color:#F3CC25"/>
			<stop  offset="0.6695" style="stop-color:#F7D53F"/>
			<stop  offset="0.7468" style="stop-color:#FBE363"/>
			<stop  offset="0.8125" style="stop-color:#FFF088"/>
			<stop  offset="1" style="stop-color:#FFF8D6"/>
		</linearGradient>
		<path class="st9" d="M746.5,269.4L526.2,142.3l-12.2-7.1l-12.2,7.1L281.5,269.4l-12.2,7.1v14.1v254.3V559l12.2,7.1l220.2,127.2
			l12.2,7.1l12.2-7.1L746.5,566l12.2-7.1v-14.1V290.6v-14.1L746.5,269.4z M514,617.3l-31.1,36.8l-158.1-91.3l16.3-45.3l-47.4-8.5
			V326.5l47.4-8.5l-16.3-45.3l158.1-91.3l31.1,36.8l31.1-36.8l158.1,91.3L686.8,318l47.4,8.5V509l-47.4,8.5l16.3,45.3l-158.1,91.3
			L514,617.3z"/>
		<polygon class="st6" points="514,193 492.3,167.7 514,154.7 535.7,167.7 		"/>
		<polygon class="st5" points="514,642.4 535.7,667.8 514,680.7 492.3,667.8 		"/>
		<polygon class="st3" points="708.6,305.4 741.4,311.5 741.8,286.2 719.7,273.9 		"/>
		<polygon class="st4" points="319.4,530.1 286.6,523.9 286.2,549.2 308.3,561.6 		"/>
		<polygon class="st4" points="708.6,530.1 741.4,523.9 741.8,549.2 719.7,561.6 		"/>
		<polygon class="st3" points="319.4,305.4 286.6,311.5 286.2,286.2 308.3,273.9 		"/>
		<path class="st10" d="M514,159l16.1,9.6L514,187.4l-16.1-18.8L514,159 M514,154.7l-21.7,13L514,193l21.7-25.3L514,154.7L514,154.7
			z"/>
		<path class="st10" d="M514,648.1l16.1,18.8l-16.1,9.6l-16.1-9.6L514,648.1 M514,642.4l-21.7,25.3l21.7,13l21.7-13L514,642.4
			L514,642.4z"/>
		<path class="st10" d="M721.7,279.2l16.4,9.1l-0.3,18.8l-24.3-4.6L721.7,279.2 M719.7,273.9l-11.1,31.5l32.8,6.1l0.4-25.3
			L719.7,273.9L719.7,273.9z"/>
		<path class="st10" d="M290.2,528.3l24.3,4.6l-8.2,23.3l-16.4-9.1L290.2,528.3 M286.6,523.9l-0.4,25.3l22.1,12.3l11.1-31.5
			L286.6,523.9L286.6,523.9z"/>
		<path class="st10" d="M737.8,528.3l0.3,18.8l-16.4,9.1l-8.2-23.3L737.8,528.3 M741.4,523.9l-32.8,6.1l11.1,31.5l22.1-12.3
			L741.4,523.9L741.4,523.9z"/>
		<path class="st10" d="M306.3,279.2l8.2,23.3l-24.3,4.6l-0.3-18.8L306.3,279.2 M308.3,273.9l-22.1,12.3l0.4,25.3l32.8-6.1
			L308.3,273.9L308.3,273.9z"/>
		<path class="st8" d="M734.2,326.5l-47.4-8.5v0l16.3-45.3l-158.1-91.3L514,218.2l-31.1-36.8l-158.1,91.3l16.3,45.3v0l-47.4,8.5V509
			l47.4,8.5l-16.3,45.3l158.1,91.3l31.1-36.8l31.1,36.8l158.1-91.3l-16.3-45.3l47.4-8.5V326.5z M547.3,193.9L691.2,277l-13.6,37.6
			c-0.4,1.1-0.5,2.2-0.5,3.3l-109.8,63.4l-48.4-27.9V226.6c1-0.6,1.8-1.2,2.6-2.1L547.3,193.9z M514,473.6l-48.4-27.9l0,0v-55.9
			l48.4-27.9l48.4,27.9l0,0v55.9l0,0L514,473.6z M480.7,193.9l25.8,30.6c0.7,0.9,1.6,1.5,2.6,2.1v126.8l0,0l-48.4,27.9h0
			l-109.8-63.4c0-1.1-0.1-2.2-0.5-3.3L336.8,277L480.7,193.9z M303.5,334.6l39.4-7.1c1.1-0.2,2.1-0.6,3.1-1.2l109.8,63.4v55.9
			L346,509.1c-1-0.5-2-1-3.1-1.2l-39.4-7.1V334.6z M480.7,641.5l-143.9-83.1l13.6-37.6c0.4-1.1,0.5-2.2,0.5-3.3l109.8-63.4h0
			l48.4,27.9h0v126.8c-1,0.6-1.9,1.2-2.6,2.1L480.7,641.5z M691.2,558.5l-143.9,83.1L521.5,611c-0.7-0.9-1.6-1.5-2.6-2.1V482.1
			l48.4-27.9l0,0l109.8,63.4c0,1.1,0.1,2.2,0.5,3.3L691.2,558.5z M724.5,500.8l-39.4,7.1c-1.1,0.2-2.1,0.6-3.1,1.2l-109.8-63.4
			v-55.9L682,326.4c1,0.5,2,1,3.1,1.2l39.4,7.1V500.8z"/>
	</g>
	<g>
		<path class="st3" d="M243.8,789.3h4.7h1.6h12.5h6.2h18.7c19,0,34.3,15.3,34.3,34.3c0,5.8-1.4,11.4-4.2,16.4
			c8.6,6.6,13.6,16.5,13.6,27.3c0,19-15.3,34.3-34.3,34.3h-28.1h-6.2H250h-2.3h-3.9v-6.2h6.2h3.1h9.4h6.2h28.1
			c15.4,0,28.1-12.6,28.1-28.1c0-6.4-2.2-12.5-6.1-17.5c-1.2-1.6-2.8-3-4.7-4.4c-1.7-1.4-3.4-2.5-5.5-3.6c1.1-1.6,2.2-3,3.1-4.4
			c0.9-1.6,1.7-3.1,2.2-4.8c1.1-3,1.6-5.9,1.6-9c0-15.4-12.6-28.1-28.1-28.1h-18.7h-6.2h-6.2H250h-6.2V789.3z M243.8,808.1h6.2V883
			h-6.2V808.1z M262.5,808.1h6.2h18.7c8.6,0,15.6,7,15.6,15.6s-7,15.6-15.6,15.6h-18.7h-6.2V833v-18.7V808.1z M262.5,851.8h6.2h28.1
			c8.6,0,15.6,7,15.6,15.6s-7,15.6-15.6,15.6h-28.1h-6.2v-6.2V858V851.8z M268.8,814.3V833h18.7c5.1,0,9.4-4.2,9.4-9.4
			s-4.2-9.4-9.4-9.4H268.8z M268.8,858v18.7h28.1c5.1,0,9.4-4.2,9.4-9.4s-4.2-9.4-9.4-9.4H268.8z"/>
		<path class="st3" d="M346.8,789.3h6.2v112.3h-6.2V789.3z M365.5,789.3h6.2v87.4h46.8v6.2h-46.8h-6.2V789.3z M365.5,895.4h53v6.2
			h-53V895.4z"/>
		<path class="st3" d="M434.1,789.3h6.2v112.3h-6.2V789.3z M452.8,789.3h6.2v112.3h-6.2V789.3z"/>
		<path class="st3" d="M474.7,789.3h87.4v6.2h-87.4V789.3z M474.7,808.1h31.2h6.2v6.2v87.4h-6.2v-87.4h-31.2V808.1z M524.6,808.1
			h6.2h31.2v6.2h-31.2v87.4h-6.2v-87.4V808.1z"/>
		<path class="st3" d="M577.7,789.3H665v0.5v5.8h-87.4V789.3z M577.7,808.1h49.9h11.7h8.6l-5.9,6.2l-58.3,62.4l-5.9,6.2v-9
			l55.8-59.6h-55.8V808.1z M577.7,895.4H665v6.2h-87.4v-0.5V895.4z M659.1,814.3l5.9-6.2v9l-55.9,59.6H665v6.2h-58.5h-3.3h-8.4
			l5.8-6.2L659.1,814.3z"/>
		<path class="st3" d="M680.6,789.3h7.5l31.8,49.3l6.2,9.7v53.4h-6.2v-51.5L680.6,789.3z M702.9,789.3h7.5l22,34.2l22.2-34.2h7.5
			l-17.2,26.4l-12.5,19.3l-12.5-19.3L702.9,789.3z M776.9,789.3h7.5l-39.5,60.8v51.5h-6.2v-53.4l6.2-9.7L776.9,789.3z"/>
	</g>
</g>
</svg>
